<?xml version="1.0" encoding="UTF-8" standalone="no"?>
<!-- Created with Inkscape (http://www.inkscape.org/) -->

<svg
   width="256"
   height="256"
   viewBox="0 0 67.733332 67.733332"
   version="1.1"
   id="svg1"
   inkscape:version="1.4.3 (0d15f75, 2025-12-25)"
   sodipodi:docname="zLMTools.svg"
   inkscape:export-filename="zLMTools.png"
   inkscape:export-xdpi="96"
   inkscape:export-ydpi="96"
   xmlns:inkscape="http://www.inkscape.org/namespaces/inkscape"
   xmlns:sodipodi="http://sodipodi.sourceforge.net/DTD/sodipodi-0.dtd"
   xmlns="http://www.w3.org/2000/svg"
   xmlns:svg="http://www.w3.org/2000/svg">
  <sodipodi:namedview
     id="namedview1"
     pagecolor="#ffffff"
     bordercolor="#000000"
     borderopacity="0.25"
     inkscape:showpageshadow="2"
     inkscape:pageopacity="0.0"
     inkscape:pagecheckerboard="0"
     inkscape:deskcolor="#d1d1d1"
     inkscape:document-units="mm"
     inkscape:zoom="4.7382812"
     inkscape:cx="128"
     inkscape:cy="128"
     inkscape:window-width="2560"
     inkscape:window-height="1494"
     inkscape:window-x="-11"
     inkscape:window-y="-11"
     inkscape:window-maximized="1"
     inkscape:current-layer="layer1" />
  <defs
     id="defs1" />
  <g
     inkscape:label="Calque 1"
     inkscape:groupmode="layer"
     id="layer1">
    <rect
       style="fill:#090938;stroke-width:0.678298;stroke-dasharray:none;paint-order:stroke fill markers;fill-opacity:1"
       id="rect2"
       width="67.73333"
       height="67.73333"
       x="0"
       y="-1.110223e-16"
       rx="10"
       ry="10" />
    <path
       id="ibm--z-and-linuxone-multi-frame_1_"
       d="M 62.288705,62.970834 H 5.4446284 c -0.377051,0 -0.6821287,-0.326309 -0.6821287,-0.72963 V 5.4921306 c 0,-0.4033077 0.3050777,-0.7296309 0.6821287,-0.7296309 H 62.288705 c 0.377064,0 0.682129,0.3263232 0.682129,0.7296309 V 62.241204 c 0,0.403321 -0.305065,0.72963 -0.682129,0.72963 z m -3.107479,-1.459262 h 2.423457 V 6.2217616 h -2.423457 z m -12.299159,0 H 57.816971 V 50.688713 l -4.416782,7.875961 c -0.07585,0.135784 -0.193275,0.241187 -0.33159,0.299957 z m -6.648864,0 h 2.423448 V 6.2217616 h -2.423448 z m -12.299168,0 h 10.93491 V 50.688713 l -4.416775,7.875961 c -0.07767,0.135784 -0.193277,0.241187 -0.331599,0.299957 z m -6.64885,0 h 2.425342 V 6.2217616 h -2.425342 z m -12.2991655,0 H 19.920925 V 50.688713 l -4.418685,7.875961 c -0.07765,0.135784 -0.193283,0.241187 -0.331572,0.299957 z M 44.022805,48.783565 v 12.379406 l 8.325768,-3.563031 4.94543,-8.818402 z m -18.94802,0 v 12.379406 l 8.325769,-3.563031 4.945432,-8.818402 z m -18.9480274,0 v 12.379406 l 8.3257554,-3.563031 4.94545,-8.818402 z M 45.803927,47.324303 H 57.816971 V 36.055558 l -4.456573,6.355897 c -0.05309,0.07499 -0.117483,0.139849 -0.195167,0.188486 z m -18.948025,0 H 38.868945 V 36.055558 l -4.456571,6.355897 c -0.0531,0.07499 -0.119378,0.139849 -0.195174,0.188486 z m -18.9480255,0 H 19.920925 V 36.055558 l -4.456573,6.355897 c -0.05304,0.07499 -0.119381,0.139849 -0.195154,0.188486 z M 44.022805,34.596296 V 46.76492 l 8.325768,-5.344546 4.786264,-6.826104 z m -18.94802,0 V 46.76492 l 8.327658,-5.344546 4.786269,-6.826104 z m -18.9480274,0 V 46.76492 l 8.3276604,-5.344546 4.784379,-6.824078 z M 44.704936,33.137034 H 57.816971 V 20.968411 l -8.325763,5.344548 z m -18.94802,0 H 38.867053 V 20.968411 l -8.325766,5.344548 z m -18.9480297,0 H 19.920925 V 20.968411 l -8.327661,5.344548 z M 44.022805,20.409029 v 11.268744 l 4.456583,-6.355895 c 0.05307,-0.07702 0.11747,-0.13985 0.195165,-0.188486 l 7.361305,-4.724363 z m -18.94802,0 v 11.268744 l 4.456573,-6.355895 c 0.05306,-0.07702 0.119377,-0.13985 0.19517,-0.188486 l 7.361304,-4.724363 z m -18.9480274,0 v 11.268744 l 4.4565754,-6.355895 c 0.05299,-0.07702 0.119381,-0.13985 0.19515,-0.188486 l 7.361322,-4.724363 z M 44.545779,18.949767 H 57.816971 V 6.5703605 l -8.325763,3.5610045 z m -18.948032,0 H 38.868945 V 6.5703605 L 30.54319,10.131365 Z m -18.9480237,0 H 19.920925 V 6.5703605 L 11.595161,10.131365 Z M 44.022805,6.2217616 V 17.044618 l 4.416794,-7.873937 c 0.07578,-0.1358146 0.193261,-0.2432104 0.331586,-0.3019638 l 6.18653,-2.6469325 z m -18.94802,0 V 17.044618 l 4.418682,-7.873937 c 0.07765,-0.1358146 0.193274,-0.2432104 0.331588,-0.3019638 l 6.186533,-2.6469325 z m -18.9480274,0 V 17.044618 L 10.545442,9.170681 c 0.0777,-0.1358146 0.193287,-0.2432104 0.331575,-0.3019638 l 6.18463,-2.6469325 z"
       style="fill:#808080;stroke-width:1.95962" />
    <g
       id="g3"
       transform="matrix(2.9999992,0,0,3.0000024,-18.875542,-15.747459)">
      <path
         style="fill:#71c837;stroke-width:0.0119395;paint-order:stroke fill markers"
         d="m 17.258723,23.149389 c -0.358916,-0.02434 -0.580275,-0.05018 -0.860663,-0.100586 -0.584227,-0.104969 -1.116142,-0.277204 -1.692266,-0.54797 -0.240224,-0.112906 -0.34978,-0.143642 -0.536664,-0.150609 -0.102411,-0.0038 -0.175268,-2.33e-4 -0.232612,0.01147 -0.04595,0.0093 -0.429737,0.110225 -0.85292,0.224172 l -0.769417,0.207178 -0.155073,-7.23e-4 c -0.134531,-6.63e-4 -0.167754,-0.0049 -0.250754,-0.03237 -0.282443,-0.09324 -0.497981,-0.324546 -0.574005,-0.615994 -0.02963,-0.113462 -0.02699,-0.290389 0.0062,-0.416939 0.01464,-0.05565 0.11243,-0.421552 0.21739,-0.813029 0.113956,-0.425045 0.196154,-0.754953 0.204047,-0.818956 0.01605,-0.130457 -9.3e-5,-0.286897 -0.04401,-0.425785 -0.01623,-0.05133 -0.0725,-0.185279 -0.125033,-0.297683 -0.339663,-0.726731 -0.526662,-1.40555 -0.611267,-2.218989 -0.0099,-0.09504 -0.01552,-0.316988 -0.01552,-0.613498 0,-0.473948 0.0071,-0.594836 0.05468,-0.929182 0.15995,-1.123072 0.594078,-2.161555 1.28296,-3.068828 0.363167,-0.478305 0.835369,-0.945486 1.326148,-1.312047 1.171248,-0.874801 2.640399,-1.3418472 4.099923,-1.3033682 1.039166,0.02743 1.983241,0.2674852 2.889549,0.7348542 0.646915,0.333596 1.179681,0.729448 1.709135,1.269889 0.947168,0.966825 1.562204,2.179572 1.787485,3.524614 0.068,0.406241 0.07929,0.560185 0.07929,1.084047 0,0.523866 -0.01129,0.677809 -0.07929,1.084046 -0.204575,1.221406 -0.72786,2.327058 -1.546552,3.267686 -0.157268,0.180693 -0.503767,0.523117 -0.694319,0.686162 -0.363785,0.311264 -0.822802,0.618463 -1.258501,0.842248 -0.764019,0.392421 -1.555154,0.624196 -2.415605,0.707672 -0.184397,0.0179 -0.795337,0.03246 -0.942384,0.02249 z m -2.147205,-5.969133 c 0.214207,-0.05838 0.395182,-0.240321 0.460155,-0.4625 0.02769,-0.09474 0.02769,-0.262634 0,-0.357382 -0.06571,-0.224728 -0.248665,-0.406744 -0.467087,-0.464723 -0.0844,-0.0224 -0.250957,-0.02496 -0.333322,-0.0051 -0.22554,0.05433 -0.409337,0.226457 -0.478561,0.44816 -0.02725,0.08714 -0.03016,0.113551 -0.02558,0.226942 0.0062,0.153485 0.03201,0.234404 0.112007,0.351561 0.160425,0.234985 0.451723,0.339628 0.732384,0.263084 z m 2.647595,3.7e-5 c 0.210644,-0.05786 0.384078,-0.221563 0.456054,-0.430486 0.02214,-0.06429 0.02743,-0.105005 0.02743,-0.210741 0,-0.105736 -0.0053,-0.146429 -0.02743,-0.210741 -0.07188,-0.208527 -0.242861,-0.369614 -0.459052,-0.432373 -0.08931,-0.02593 -0.261303,-0.02593 -0.350617,0 -0.216191,0.0628 -0.387218,0.223846 -0.459052,0.432373 -0.03916,0.113665 -0.03916,0.307808 0,0.421482 0.115975,0.336647 0.470517,0.524457 0.812667,0.430486 z m 2.63095,0.0067 c 0.102491,-0.01984 0.228556,-0.09074 0.315128,-0.177253 0.131665,-0.131586 0.191452,-0.279109 0.191708,-0.473014 4e-4,-0.309703 -0.206754,-0.573969 -0.506554,-0.646183 -0.08237,-0.01984 -0.248876,-0.01729 -0.333322,0.0051 -0.218387,0.05794 -0.401108,0.23973 -0.467175,0.464723 -0.02972,0.101071 -0.02707,0.273659 0.0056,0.37525 0.110244,0.342336 0.427241,0.522402 0.794597,0.451344 z"
         id="path5" />
      <path
         style="fill:#0000ff;stroke-width:0.0154479;paint-order:stroke fill markers"
         d="m 14.740186,17.171054 c -0.113123,-0.03743 -0.19859,-0.09039 -0.2793,-0.173057 -0.320413,-0.328187 -0.21684,-0.861199 0.205906,-1.059642 0.09406,-0.04415 0.118552,-0.04895 0.250765,-0.04909 0.177872,-1.89e-4 0.271375,0.02844 0.398439,0.121975 0.10598,0.07802 0.208001,0.221994 0.243268,0.34331 0.03963,0.136303 0.02524,0.327054 -0.03405,0.451686 -0.06971,0.146527 -0.170508,0.250281 -0.31023,0.319335 -0.106882,0.05282 -0.128942,0.05797 -0.264848,0.06176 -0.09259,0.0026 -0.17142,-0.0035 -0.209949,-0.01628 z"
         id="path6" />
      <path
         style="fill:#0000ff;stroke-width:0.0154479;paint-order:stroke fill markers"
         d="m 17.379124,17.161963 c -0.125497,-0.04128 -0.24943,-0.130801 -0.327031,-0.236214 -0.09311,-0.126483 -0.121775,-0.220067 -0.121639,-0.397137 1.03e-4,-0.132618 0.0048,-0.156417 0.04938,-0.250765 0.06834,-0.144608 0.182633,-0.260899 0.326092,-0.331801 0.110174,-0.05445 0.123084,-0.05718 0.271065,-0.05734 0.146862,-1.61e-4 0.161779,0.0029 0.272068,0.05556 0.146174,0.06981 0.256624,0.177518 0.325551,0.317474 0.04878,0.09904 0.05132,0.112658 0.05132,0.274946 0,0.166332 -0.0015,0.173785 -0.05808,0.28835 -0.06968,0.141092 -0.173287,0.241764 -0.319796,0.310747 -0.131362,0.06185 -0.327254,0.07279 -0.468923,0.02619 z"
         id="path7" />
      <path
         style="fill:#0000ff;stroke-width:0.0154479;paint-order:stroke fill markers"
         d="m 20.053627,17.170617 c -0.303919,-0.08833 -0.497357,-0.368229 -0.473467,-0.685094 0.017,-0.225508 0.161396,-0.432114 0.376191,-0.538272 0.105706,-0.05224 0.12324,-0.05606 0.263353,-0.05734 0.181898,-0.0017 0.27217,0.02574 0.403719,0.122584 0.16593,0.122151 0.26308,0.319219 0.26308,0.533656 0,0.256782 -0.142997,0.476297 -0.383688,0.588999 -0.08694,0.04071 -0.122828,0.04842 -0.240969,0.05174 -0.08075,0.0023 -0.167842,-0.0045 -0.208219,-0.01627 z"
         id="path8" />
    </g>
  </g>
</svg>
